<svg width="27" height="27" viewBox="0 0 27 27" fill="none" xmlns="http://www.w3.org/2000/svg">
<path fill-rule="evenodd" clip-rule="evenodd" d="M13.5 0C20.956 0 27 6.19648 27 13.8415C27 19.9556 23.1363 25.1423 17.7754 26.9743C17.091 27.1106 16.848 26.6786 16.848 26.3101C16.848 25.8538 16.8642 24.3634 16.8642 22.5112C16.8642 21.2206 16.4322 20.3782 15.9476 19.9489C18.954 19.606 22.113 18.4355 22.113 13.1193C22.113 11.6073 21.5892 10.3734 20.7225 9.40407C20.8629 9.05442 21.326 7.64637 20.5902 5.74018C20.5902 5.74018 19.4589 5.36893 16.8818 7.15902C15.7806 6.85211 14.6431 6.69544 13.5 6.69328C12.3578 6.69534 11.2211 6.85201 10.1209 7.15902C7.5411 5.36893 6.4071 5.74018 6.4071 5.74018C5.67405 7.64637 6.1371 9.05442 6.27615 9.40407C5.4135 10.3734 4.88565 11.6073 4.88565 13.1193C4.88565 18.422 8.0379 19.61 11.0363 19.9597C10.6502 20.3053 10.3005 20.9155 10.179 21.8105C9.4095 22.1642 7.4547 22.7758 6.2505 20.6603C6.2505 20.6603 5.53635 19.3306 4.18095 19.2334C4.18095 19.2334 2.8647 19.2158 4.08915 20.0744C4.08915 20.0744 4.9734 20.4997 5.58765 22.0994C5.58765 22.0994 6.3801 24.5699 10.1358 23.7329C10.1426 24.8899 10.1547 25.9807 10.1547 26.3101C10.1547 26.6759 9.9063 27.1038 9.23265 26.9756C3.86775 25.1464 0 19.957 0 13.8415C0 6.19648 6.0453 0 13.5 0Z" fill="currentColor"/>
</svg>
