<svg width="27" height="27" viewBox="0 0 27 27" fill="none" xmlns="http://www.w3.org/2000/svg">
<path d="M5.29099 0C2.38136 0 0 2.38131 0 5.29099V21.7099C0 24.6195 2.38131 27 5.29099 27H21.7099C24.6195 27 27 24.6195 27 21.7099V5.29099C27 2.38136 24.6195 0 21.7099 0H5.29099ZM6.62175 4.45554C8.01686 4.45554 8.87619 5.37141 8.90271 6.57529C8.90271 7.7526 8.01681 8.69421 6.59477 8.69421H6.5686C5.20004 8.69421 4.31549 7.75266 4.31549 6.57529C4.31549 5.37143 5.22681 4.45554 6.62173 4.45554H6.62175ZM18.6442 10.0824C21.3272 10.0824 23.3386 11.836 23.3386 15.6046V22.6398H19.261V16.0762C19.261 14.4269 18.6709 13.3016 17.1953 13.3016C16.0688 13.3016 15.3973 14.0601 15.1025 14.7927C14.9948 15.0549 14.9683 15.421 14.9683 15.7876V22.6398H10.8908C10.8908 22.6398 10.9443 11.5213 10.8908 10.3701H14.9692V12.1076C15.511 11.2716 16.4803 10.0823 18.6442 10.0823V10.0824ZM4.556 10.371H8.63351V22.6398H4.556V10.371Z" fill="CurrentColor"/>
</svg>
