<svg class="item-title-link-icon" width="24" height="24" viewBox="0 0 24 24" fill="none" xmlns="http://www.w3.org/2000/svg">
    <path fill-rule="evenodd" clip-rule="evenodd" d="M4.21325 18.7865C2.76209 17.3353 2.76209 14.9825 4.21325 13.5314L8.2742 9.47043C9.76587 7.97876 12.1843 7.97876 13.676 9.47043L14.207 10.0014L12.7928 11.4156L12.2618 10.8846C11.5512 10.174 10.399 10.174 9.68841 10.8846L5.62747 14.9456C4.95735 15.6157 4.95735 16.7022 5.62747 17.3723C6.29758 18.0424 7.38405 18.0424 8.05416 17.3723L9.68267 15.7438L11.0969 17.158L9.46838 18.7865C8.01722 20.2377 5.66442 20.2377 4.21325 18.7865Z" fill="currentColor"/>
    <path fill-rule="evenodd" clip-rule="evenodd" d="M20.121 5.21326C21.5721 6.66442 21.5721 9.01722 20.121 10.4684L16.06 14.5293C14.5684 16.021 12.1499 16.021 10.6582 14.5293L9.6019 13.473L11.0161 12.0588L12.0724 13.1151C12.783 13.8257 13.9352 13.8257 14.6458 13.1151L18.7068 9.05417C19.3769 8.38405 19.3769 7.29759 18.7068 6.62747C18.0366 5.95736 16.9502 5.95736 16.2801 6.62747L14.6516 8.25598L13.2373 6.84176L14.8659 5.21326C16.317 3.7621 18.6698 3.7621 20.121 5.21326Z" fill="currentColor"/>
</svg>